<svg width="797" height="145" viewBox="0 0 797 145" fill="none" xmlns="http://www.w3.org/2000/svg">
<path d="M111.585 116V28.7273H146.017C152.636 28.7273 158.276 29.9915 162.935 32.5199C167.594 35.0199 171.145 38.5 173.588 42.9602C176.06 47.392 177.295 52.5057 177.295 58.3011C177.295 64.0966 176.045 69.2102 173.545 73.642C171.045 78.0739 167.423 81.5256 162.679 83.9972C157.963 86.4687 152.253 87.7045 145.548 87.7045H123.602V72.9176H142.565C146.116 72.9176 149.043 72.3068 151.344 71.0852C153.673 69.8352 155.406 68.1165 156.543 65.929C157.707 63.7131 158.29 61.1705 158.29 58.3011C158.29 55.4034 157.707 52.875 156.543 50.7159C155.406 48.5284 153.673 46.8381 151.344 45.6449C149.014 44.4233 146.06 43.8125 142.48 43.8125H130.037V116H111.585ZM230.914 88.1307V50.5455H249.067V116H231.638V104.111H230.957C229.479 107.946 227.022 111.028 223.585 113.358C220.175 115.687 216.013 116.852 211.099 116.852C206.724 116.852 202.874 115.858 199.55 113.869C196.227 111.881 193.627 109.054 191.752 105.389C189.906 101.724 188.968 97.3352 188.94 92.2216V50.5455H207.093V88.983C207.121 92.8466 208.158 95.9006 210.204 98.1449C212.249 100.389 214.991 101.511 218.428 101.511C220.616 101.511 222.661 101.014 224.565 100.02C226.468 98.9972 228.002 97.4915 229.167 95.5028C230.36 93.5142 230.942 91.0568 230.914 88.1307ZM281.741 28.7273V116H263.588V28.7273H281.741ZM350.744 69.2102L334.124 70.233C333.84 68.8125 333.229 67.5341 332.292 66.3977C331.354 65.233 330.119 64.3097 328.585 63.6278C327.079 62.9176 325.275 62.5625 323.173 62.5625C320.36 62.5625 317.988 63.1591 316.056 64.3523C314.124 65.517 313.158 67.0795 313.158 69.0398C313.158 70.6023 313.783 71.9233 315.033 73.0028C316.283 74.0824 318.428 74.9489 321.468 75.6023L333.315 77.9886C339.678 79.2955 344.423 81.3977 347.548 84.2955C350.673 87.1932 352.235 91 352.235 95.7159C352.235 100.006 350.971 103.77 348.442 107.009C345.942 110.247 342.505 112.776 338.13 114.594C333.783 116.384 328.769 117.278 323.087 117.278C314.423 117.278 307.519 115.474 302.377 111.866C297.263 108.23 294.266 103.287 293.386 97.0369L311.241 96.0994C311.781 98.7415 313.087 100.759 315.161 102.151C317.235 103.514 319.891 104.196 323.13 104.196C326.312 104.196 328.869 103.585 330.8 102.364C332.761 101.114 333.755 99.5085 333.783 97.5483C333.755 95.9006 333.059 94.5511 331.695 93.5C330.332 92.4205 328.229 91.5966 325.388 91.0284L314.053 88.7699C307.661 87.4915 302.903 85.2756 299.778 82.1222C296.681 78.9687 295.133 74.9489 295.133 70.0625C295.133 65.858 296.269 62.2358 298.542 59.196C300.843 56.1562 304.067 53.8125 308.215 52.1648C312.391 50.517 317.278 49.6932 322.874 49.6932C331.141 49.6932 337.647 51.4403 342.391 54.9347C347.164 58.429 349.948 63.1875 350.744 69.2102ZM393.496 117.278C386.763 117.278 380.967 115.915 376.109 113.188C371.28 110.432 367.558 106.54 364.945 101.511C362.331 96.4545 361.024 90.4744 361.024 83.571C361.024 76.8381 362.331 70.929 364.945 65.8438C367.558 60.7585 371.237 56.7955 375.982 53.9545C380.754 51.1136 386.351 49.6932 392.771 49.6932C397.089 49.6932 401.109 50.3892 404.831 51.7812C408.581 53.1449 411.848 55.2045 414.632 57.9602C417.445 60.7159 419.632 64.1818 421.195 68.358C422.757 72.5057 423.538 77.3636 423.538 82.9318V87.9176H368.268V76.6676H406.45C406.45 74.054 405.882 71.7386 404.746 69.7216C403.609 67.7045 402.033 66.1278 400.016 64.9915C398.027 63.8267 395.712 63.2443 393.07 63.2443C390.314 63.2443 387.871 63.8835 385.74 65.1619C383.638 66.4119 381.99 68.1023 380.797 70.233C379.604 72.3352 378.993 74.679 378.964 77.2642V87.9602C378.964 91.1989 379.561 93.9972 380.754 96.3551C381.976 98.7131 383.695 100.531 385.911 101.81C388.126 103.088 390.754 103.727 393.794 103.727C395.811 103.727 397.658 103.443 399.334 102.875C401.01 102.307 402.445 101.455 403.638 100.318C404.831 99.1818 405.74 97.7898 406.365 96.142L423.155 97.25C422.303 101.284 420.555 104.807 417.913 107.818C415.3 110.801 411.919 113.131 407.771 114.807C403.652 116.455 398.893 117.278 393.496 117.278ZM435.726 116V28.7273H470.158C476.777 28.7273 482.416 29.9915 487.075 32.5199C491.734 35.0199 495.286 38.5 497.729 42.9602C500.2 47.392 501.436 52.5057 501.436 58.3011C501.436 64.0966 500.186 69.2102 497.686 73.642C495.186 78.0739 491.564 81.5256 486.82 83.9972C482.104 86.4687 476.393 87.7045 469.689 87.7045H447.743V72.9176H466.706C470.257 72.9176 473.183 72.3068 475.484 71.0852C477.814 69.8352 479.547 68.1165 480.683 65.929C481.848 63.7131 482.43 61.1705 482.43 58.3011C482.43 55.4034 481.848 52.875 480.683 50.7159C479.547 48.5284 477.814 46.8381 475.484 45.6449C473.155 44.4233 470.2 43.8125 466.621 43.8125H454.178V116H435.726ZM541.599 117.278C534.98 117.278 529.256 115.872 524.426 113.06C519.625 110.219 515.918 106.27 513.304 101.213C510.69 96.1278 509.384 90.233 509.384 83.5284C509.384 76.767 510.69 70.858 513.304 65.8011C515.918 60.7159 519.625 56.767 524.426 53.9545C529.256 51.1136 534.98 49.6932 541.599 49.6932C548.219 49.6932 553.929 51.1136 558.73 53.9545C563.56 56.767 567.281 60.7159 569.895 65.8011C572.509 70.858 573.815 76.767 573.815 83.5284C573.815 90.233 572.509 96.1278 569.895 101.213C567.281 106.27 563.56 110.219 558.73 113.06C553.929 115.872 548.219 117.278 541.599 117.278ZM541.685 103.216C544.696 103.216 547.21 102.364 549.227 100.659C551.244 98.9261 552.764 96.5682 553.787 93.5852C554.838 90.6023 555.364 87.2074 555.364 83.4006C555.364 79.5938 554.838 76.1989 553.787 73.2159C552.764 70.233 551.244 67.875 549.227 66.142C547.21 64.4091 544.696 63.5426 541.685 63.5426C538.645 63.5426 536.088 64.4091 534.014 66.142C531.969 67.875 530.42 70.233 529.369 73.2159C528.347 76.1989 527.835 79.5938 527.835 83.4006C527.835 87.2074 528.347 90.6023 529.369 93.5852C530.42 96.5682 531.969 98.9261 534.014 100.659C536.088 102.364 538.645 103.216 541.685 103.216ZM640.08 69.2102L623.46 70.233C623.176 68.8125 622.565 67.5341 621.628 66.3977C620.69 65.233 619.455 64.3097 617.92 63.6278C616.415 62.9176 614.611 62.5625 612.509 62.5625C609.696 62.5625 607.324 63.1591 605.392 64.3523C603.46 65.517 602.494 67.0795 602.494 69.0398C602.494 70.6023 603.119 71.9233 604.369 73.0028C605.619 74.0824 607.764 74.9489 610.804 75.6023L622.651 77.9886C629.014 79.2955 633.759 81.3977 636.884 84.2955C640.009 87.1932 641.571 91 641.571 95.7159C641.571 100.006 640.307 103.77 637.778 107.009C635.278 110.247 631.841 112.776 627.466 114.594C623.119 116.384 618.105 117.278 612.423 117.278C603.759 117.278 596.855 115.474 591.713 111.866C586.599 108.23 583.602 103.287 582.722 97.0369L600.577 96.0994C601.116 98.7415 602.423 100.759 604.497 102.151C606.571 103.514 609.227 104.196 612.466 104.196C615.648 104.196 618.205 103.585 620.136 102.364C622.097 101.114 623.091 99.5085 623.119 97.5483C623.091 95.9006 622.395 94.5511 621.031 93.5C619.668 92.4205 617.565 91.5966 614.724 91.0284L603.389 88.7699C596.997 87.4915 592.239 85.2756 589.114 82.1222C586.017 78.9687 584.469 74.9489 584.469 70.0625C584.469 65.858 585.605 62.2358 587.878 59.196C590.179 56.1562 593.403 53.8125 597.551 52.1648C601.727 50.517 606.614 49.6932 612.21 49.6932C620.477 49.6932 626.983 51.4403 631.727 54.9347C636.5 58.429 639.284 63.1875 640.08 69.2102ZM687.817 50.5455V64.1818H648.4V50.5455H687.817ZM657.349 34.8636H675.502V95.8864C675.502 97.5625 675.758 98.8693 676.269 99.8068C676.781 100.716 677.491 101.355 678.4 101.724C679.337 102.094 680.417 102.278 681.638 102.278C682.491 102.278 683.343 102.207 684.195 102.065C685.048 101.895 685.701 101.767 686.156 101.682L689.011 115.19C688.102 115.474 686.823 115.801 685.175 116.17C683.528 116.568 681.525 116.81 679.167 116.895C674.792 117.065 670.957 116.483 667.661 115.148C664.394 113.812 661.852 111.739 660.033 108.926C658.215 106.114 657.32 102.562 657.349 98.2727V34.8636Z" fill="url(#paint0_linear_1935_112)"/>
<path d="M772 48L765.182 66.1818L747 73L765.182 79.8182L772 98L778.818 79.8182L797 73L778.818 66.1818L772 48Z" fill="#FF00A6"/>
<path d="M25 48L18.1818 66.1818L0 73L18.1818 79.8182L25 98L31.8182 79.8182L50 73L31.8182 66.1818L25 48Z" fill="#FFC100"/>
<path d="M63 90L59.4545 99.4545L50 103L59.4545 106.545L63 116L66.5455 106.545L76 103L66.5455 99.4545L63 90Z" fill="#FFC100"/>
<path d="M734 90L730.455 99.4545L721 103L730.455 106.545L734 116L737.545 106.545L747 103L737.545 99.4545L734 90Z" fill="#FF00A6"/>
<defs>
<linearGradient id="paint0_linear_1935_112" x1="104" y1="72.5" x2="693" y2="72.5" gradientUnits="userSpaceOnUse">
<stop stop-color="#FFC100"/>
<stop offset="1" stop-color="#FF00A6"/>
</linearGradient>
</defs>
</svg>
